# MagicaVoxel @ Ephtracy

# group
g EnemyGreen

# material
mtllib EnemyGreen.mtl
usemtl palette

# normals
vn -1 0 0
vn 1 0 0
vn 0 0 1
vn 0 0 -1
vn 0 -1 0
vn 0 1 0

# texcoords
vt 0.00195313 0.5
vt 0.0332031 0.5
vt 0.0605469 0.5
vt 0.142578 0.5
vt 0.521484 0.5
vt 0.611328 0.5
vt 0.634766 0.5
vt 0.646484 0.5
vt 0.845703 0.5
vt 0.900391 0.5
vt 0.904297 0.5
vt 0.916016 0.5
vt 0.982422 0.5
vt 0.994141 0.5

# verts
v -5 1 2.5
v -5 1 1.5
v -5 1 -1.5
v -5 1 -2.5
v -5 4 1.5
v -5 4 -1.5
v -5 5 2.5
v -5 5 -2.5
v -5 8 1.5
v -5 8 -1.5
v -5 10 1.5
v -5 10 -1.5
v -4 1 3.5
v -4 1 2.5
v -4 1 -2.5
v -4 1 -3.5
v -4 5 2.5
v -4 5 -2.5
v -4 6 3.5
v -4 6 -3.5
v -4 8 3.5
v -4 8 1.5
v -4 8 -1.5
v -4 8 -3.5
v -4 10 3.5
v -4 10 2.5
v -4 10 1.5
v -4 10 -1.5
v -4 10 -2.5
v -4 10 -3.5
v -4 12 2.5
v -4 12 -2.5
v -3 6 3.5
v -3 6 -2.5
v -3 8 3.5
v -3 8 -2.5
v -3 10 3.5
v -3 10 2.5
v -3 10 -2.5
v -3 10 -3.5
v -3 12 3.5
v -3 12 2.5
v -3 12 -2.5
v -3 12 -3.5
v -3 13 2.5
v -3 13 -2.5
v -2 0 0.5
v -2 0 -0.5
v -2 1 0.5
v -2 1 -0.5
v -2 6 -2.5
v -2 6 -3.5
v -2 8 -2.5
v -2 8 -3.5
v -2 13 1.5
v -2 13 -1.5
v -2 14 1.5
v -2 14 -1.5
v 1 0 0.5
v 1 0 -0.5
v 1 1 0.5
v 1 1 -0.5
v -1 0 0.5
v -1 0 -0.5
v -1 1 0.5
v -1 1 -0.5
v 2 0 0.5
v 2 0 -0.5
v 2 1 0.5
v 2 1 -0.5
v 2 6 -2.5
v 2 6 -3.5
v 2 8 -2.5
v 2 8 -3.5
v 2 13 1.5
v 2 13 -1.5
v 2 14 1.5
v 2 14 -1.5
v 3 6 3.5
v 3 6 -2.5
v 3 8 3.5
v 3 8 -2.5
v 3 10 3.5
v 3 10 2.5
v 3 10 -2.5
v 3 10 -3.5
v 3 12 3.5
v 3 12 2.5
v 3 12 -2.5
v 3 12 -3.5
v 3 13 2.5
v 3 13 -2.5
v 4 1 3.5
v 4 1 2.5
v 4 1 -2.5
v 4 1 -3.5
v 4 5 2.5
v 4 5 -2.5
v 4 6 3.5
v 4 6 -3.5
v 4 8 3.5
v 4 8 1.5
v 4 8 -1.5
v 4 8 -3.5
v 4 10 3.5
v 4 10 2.5
v 4 10 1.5
v 4 10 -1.5
v 4 10 -2.5
v 4 10 -3.5
v 4 12 2.5
v 4 12 -2.5
v 5 1 2.5
v 5 1 1.5
v 5 1 -1.5
v 5 1 -2.5
v 5 4 1.5
v 5 4 -1.5
v 5 5 2.5
v 5 5 -2.5
v 5 8 1.5
v 5 8 -1.5
v 5 10 1.5
v 5 10 -1.5
v -4 1 3.5
v -4 6 3.5
v -4 8 3.5
v -4 10 3.5
v -3 6 3.5
v -3 8 3.5
v -3 10 3.5
v -3 12 3.5
v -2 1 3.5
v -2 5 3.5
v -2 7 3.5
v -2 9 3.5
v -2 10 3.5
v -1 9 3.5
v -1 10 3.5
v 1 9 3.5
v 1 10 3.5
v 2 1 3.5
v 2 5 3.5
v 2 7 3.5
v 2 9 3.5
v 2 10 3.5
v 3 6 3.5
v 3 8 3.5
v 3 10 3.5
v 3 12 3.5
v 4 1 3.5
v 4 6 3.5
v 4 8 3.5
v 4 10 3.5
v -5 1 2.5
v -5 5 2.5
v -4 1 2.5
v -4 5 2.5
v -4 10 2.5
v -4 12 2.5
v -3 10 2.5
v -3 12 2.5
v -3 13 2.5
v 3 10 2.5
v 3 12 2.5
v 3 13 2.5
v 4 1 2.5
v 4 5 2.5
v 4 10 2.5
v 4 12 2.5
v 5 1 2.5
v 5 5 2.5
v -5 8 1.5
v -5 10 1.5
v -4 8 1.5
v -4 10 1.5
v -2 13 1.5
v -2 14 1.5
v 2 13 1.5
v 2 14 1.5
v 4 8 1.5
v 4 10 1.5
v 5 8 1.5
v 5 10 1.5
v -2 0 0.5
v -2 1 0.5
v -1 0 0.5
v -1 1 0.5
v 1 0 0.5
v 1 1 0.5
v 2 0 0.5
v 2 1 0.5
v -2 0 -0.5
v -2 1 -0.5
v -1 0 -0.5
v -1 1 -0.5
v 1 0 -0.5
v 1 1 -0.5
v 2 0 -0.5
v 2 1 -0.5
v -5 8 -1.5
v -5 10 -1.5
v -4 8 -1.5
v -4 10 -1.5
v -2 13 -1.5
v -2 14 -1.5
v 2 13 -1.5
v 2 14 -1.5
v 4 8 -1.5
v 4 10 -1.5
v 5 8 -1.5
v 5 10 -1.5
v -5 1 -2.5
v -5 5 -2.5
v -4 1 -2.5
v -4 5 -2.5
v -4 10 -2.5
v -4 12 -2.5
v -3 6 -2.5
v -3 8 -2.5
v -3 10 -2.5
v -3 12 -2.5
v -3 13 -2.5
v -2 6 -2.5
v -2 8 -2.5
v 2 6 -2.5
v 2 8 -2.5
v 3 6 -2.5
v 3 8 -2.5
v 3 10 -2.5
v 3 12 -2.5
v 3 13 -2.5
v 4 1 -2.5
v 4 5 -2.5
v 4 10 -2.5
v 4 12 -2.5
v 5 1 -2.5
v 5 5 -2.5
v -4 1 -3.5
v -4 6 -3.5
v -4 8 -3.5
v -4 10 -3.5
v -3 1 -3.5
v -3 5 -3.5
v -3 10 -3.5
v -3 12 -3.5
v -2 6 -3.5
v -2 8 -3.5
v -2 11 -3.5
v -1 5 -3.5
v -1 8 -3.5
v 1 5 -3.5
v 1 8 -3.5
v 2 6 -3.5
v 2 8 -3.5
v 2 11 -3.5
v 3 1 -3.5
v 3 5 -3.5
v 3 10 -3.5
v 3 12 -3.5
v 4 1 -3.5
v 4 6 -3.5
v 4 8 -3.5
v 4 10 -3.5
v -2 0 0.5
v -1 0 0.5
v 1 0 0.5
v 2 0 0.5
v -2 0 -0.5
v -1 0 -0.5
v 1 0 -0.5
v 2 0 -0.5
v -4 1 3.5
v -2 1 3.5
v 2 1 3.5
v 4 1 3.5
v -5 1 2.5
v -4 1 2.5
v -2 1 2.5
v 2 1 2.5
v 4 1 2.5
v 5 1 2.5
v -5 1 1.5
v -4 1 1.5
v 4 1 1.5
v 5 1 1.5
v -2 1 0.5
v -1 1 0.5
v 1 1 0.5
v 2 1 0.5
v -2 1 -0.5
v -1 1 -0.5
v 1 1 -0.5
v 2 1 -0.5
v -5 1 -1.5
v -4 1 -1.5
v 4 1 -1.5
v 5 1 -1.5
v -5 1 -2.5
v -4 1 -2.5
v -3 1 -2.5
v 3 1 -2.5
v 4 1 -2.5
v 5 1 -2.5
v -4 1 -3.5
v -3 1 -3.5
v 3 1 -3.5
v 4 1 -3.5
v -4 8 3.5
v -3 8 3.5
v 3 8 3.5
v 4 8 3.5
v -5 8 1.5
v -4 8 1.5
v 4 8 1.5
v 5 8 1.5
v -5 8 -1.5
v -4 8 -1.5
v 4 8 -1.5
v 5 8 -1.5
v -3 8 -2.5
v -2 8 -2.5
v 2 8 -2.5
v 3 8 -2.5
v -4 8 -3.5
v -2 8 -3.5
v 2 8 -3.5
v 4 8 -3.5
v -5 5 2.5
v -4 5 2.5
v 4 5 2.5
v 5 5 2.5
v -5 5 -2.5
v -4 5 -2.5
v 4 5 -2.5
v 5 5 -2.5
v -4 6 3.5
v -3 6 3.5
v 3 6 3.5
v 4 6 3.5
v -3 6 -2.5
v -2 6 -2.5
v 2 6 -2.5
v 3 6 -2.5
v -4 6 -3.5
v -2 6 -3.5
v 2 6 -3.5
v 4 6 -3.5
v -4 10 3.5
v -3 10 3.5
v 3 10 3.5
v 4 10 3.5
v -4 10 2.5
v -3 10 2.5
v 3 10 2.5
v 4 10 2.5
v -5 10 1.5
v -4 10 1.5
v 4 10 1.5
v 5 10 1.5
v -5 10 -1.5
v -4 10 -1.5
v 4 10 -1.5
v 5 10 -1.5
v -4 10 -2.5
v -3 10 -2.5
v 3 10 -2.5
v 4 10 -2.5
v -4 10 -3.5
v -3 10 -3.5
v 3 10 -3.5
v 4 10 -3.5
v -3 12 3.5
v 3 12 3.5
v -4 12 2.5
v -3 12 2.5
v 3 12 2.5
v 4 12 2.5
v -4 12 -2.5
v -3 12 -2.5
v 3 12 -2.5
v 4 12 -2.5
v -3 12 -3.5
v 3 12 -3.5
v -3 13 2.5
v 3 13 2.5
v -2 13 1.5
v 2 13 1.5
v -2 13 -1.5
v 2 13 -1.5
v -3 13 -2.5
v 3 13 -2.5
v -2 14 1.5
v 2 14 1.5
v -2 14 -1.5
v 2 14 -1.5

# faces
f 5/10/1 2/10/1 1/10/1
f 5/11/1 3/11/1 2/11/1
f 6/10/1 4/10/1 3/10/1
f 6/11/1 3/11/1 5/11/1
f 7/10/1 5/10/1 1/10/1
f 7/10/1 6/10/1 5/10/1
f 8/10/1 4/10/1 6/10/1
f 8/10/1 6/10/1 7/10/1
f 11/10/1 10/10/1 9/10/1
f 12/10/1 10/10/1 11/10/1
f 17/10/1 14/10/1 13/10/1
f 18/10/1 16/10/1 15/10/1
f 19/10/1 17/10/1 13/10/1
f 19/10/1 18/10/1 17/10/1
f 20/10/1 16/10/1 18/10/1
f 20/10/1 18/10/1 19/10/1
f 25/10/1 22/10/1 21/10/1
f 26/10/1 22/10/1 25/10/1
f 27/10/1 22/10/1 26/10/1
f 28/10/1 24/10/1 23/10/1
f 29/10/1 24/10/1 28/10/1
f 30/10/1 24/10/1 29/10/1
f 31/10/1 27/10/1 26/10/1
f 31/10/1 29/10/1 28/10/1
f 31/10/1 28/10/1 27/10/1
f 32/10/1 29/10/1 31/10/1
f 35/10/1 34/10/1 33/10/1
f 36/10/1 34/10/1 35/10/1
f 41/10/1 38/10/1 37/10/1
f 42/10/1 38/10/1 41/10/1
f 43/10/1 40/10/1 39/10/1
f 44/10/1 40/10/1 43/10/1
f 45/10/1 43/10/1 42/10/1
f 46/10/1 43/10/1 45/10/1
f 49/10/1 48/10/1 47/10/1
f 50/10/1 48/10/1 49/10/1
f 53/10/1 52/10/1 51/10/1
f 54/10/1 52/10/1 53/10/1
f 57/10/1 56/10/1 55/10/1
f 58/10/1 56/10/1 57/10/1
f 61/10/1 60/10/1 59/10/1
f 62/10/1 60/10/1 61/10/1
f 63/10/2 64/10/2 65/10/2
f 65/10/2 64/10/2 66/10/2
f 67/10/2 68/10/2 69/10/2
f 69/10/2 68/10/2 70/10/2
f 71/10/2 72/10/2 73/10/2
f 73/10/2 72/10/2 74/10/2
f 75/10/2 76/10/2 77/10/2
f 77/10/2 76/10/2 78/10/2
f 79/10/2 80/10/2 81/10/2
f 81/10/2 80/10/2 82/10/2
f 83/10/2 84/10/2 87/10/2
f 87/10/2 84/10/2 88/10/2
f 85/10/2 86/10/2 89/10/2
f 89/10/2 86/10/2 90/10/2
f 88/10/2 89/10/2 91/10/2
f 91/10/2 89/10/2 92/10/2
f 93/10/2 94/10/2 97/10/2
f 95/10/2 96/10/2 98/10/2
f 93/10/2 97/10/2 99/10/2
f 97/10/2 98/10/2 99/10/2
f 98/10/2 96/10/2 100/10/2
f 99/10/2 98/10/2 100/10/2
f 101/10/2 102/10/2 105/10/2
f 105/10/2 102/10/2 106/10/2
f 106/10/2 102/10/2 107/10/2
f 103/10/2 104/10/2 108/10/2
f 108/10/2 104/10/2 109/10/2
f 109/10/2 104/10/2 110/10/2
f 106/10/2 107/10/2 111/10/2
f 108/10/2 109/10/2 111/10/2
f 107/10/2 108/10/2 111/10/2
f 111/10/2 109/10/2 112/10/2
f 113/10/2 114/10/2 117/10/2
f 114/11/2 115/11/2 117/11/2
f 115/10/2 116/10/2 118/10/2
f 117/11/2 115/11/2 118/11/2
f 113/10/2 117/10/2 119/10/2
f 117/10/2 118/10/2 119/10/2
f 118/10/2 116/10/2 120/10/2
f 119/10/2 118/10/2 120/10/2
f 121/10/2 122/10/2 123/10/2
f 123/10/2 122/10/2 124/10/2
f 129/10/3 126/10/3 125/10/3
f 130/10/3 128/10/3 127/10/3
f 131/10/3 128/10/3 130/10/3
f 133/10/3 129/10/3 125/10/3
f 133/10/3 132/10/3 131/10/3
f 133/10/3 131/10/3 130/10/3
f 133/10/3 130/10/3 129/10/3
f 134/10/3 132/10/3 133/10/3
f 135/10/3 132/10/3 134/10/3
f 136/10/3 132/10/3 135/10/3
f 137/10/3 132/10/3 136/10/3
f 138/14/3 136/14/3 135/14/3
f 138/9/3 137/9/3 136/9/3
f 139/10/3 132/10/3 137/10/3
f 139/9/3 137/9/3 138/9/3
f 140/14/3 138/14/3 135/14/3
f 140/12/3 139/12/3 138/12/3
f 141/10/3 132/10/3 139/10/3
f 141/12/3 139/12/3 140/12/3
f 142/11/3 134/11/3 133/11/3
f 143/10/3 135/10/3 134/10/3
f 143/11/3 134/11/3 142/11/3
f 144/14/3 140/14/3 135/14/3
f 144/10/3 135/10/3 143/10/3
f 145/9/3 141/9/3 140/9/3
f 145/14/3 140/14/3 144/14/3
f 146/10/3 132/10/3 141/10/3
f 146/9/3 141/9/3 145/9/3
f 147/10/3 145/10/3 144/10/3
f 147/10/3 143/10/3 142/10/3
f 147/10/3 146/10/3 145/10/3
f 147/10/3 144/10/3 143/10/3
f 148/10/3 146/10/3 147/10/3
f 149/10/3 132/10/3 146/10/3
f 149/10/3 146/10/3 148/10/3
f 150/10/3 132/10/3 149/10/3
f 151/10/3 147/10/3 142/10/3
f 152/10/3 147/10/3 151/10/3
f 153/10/3 149/10/3 148/10/3
f 154/10/3 149/10/3 153/10/3
f 157/10/3 156/10/3 155/10/3
f 158/10/3 156/10/3 157/10/3
f 161/10/3 160/10/3 159/10/3
f 162/10/3 160/10/3 161/10/3
f 165/10/3 163/10/3 162/10/3
f 166/10/3 163/10/3 165/10/3
f 169/10/3 165/10/3 164/10/3
f 170/10/3 165/10/3 169/10/3
f 171/10/3 168/10/3 167/10/3
f 172/10/3 168/10/3 171/10/3
f 175/10/3 174/10/3 173/10/3
f 176/10/3 174/10/3 175/10/3
f 179/10/3 178/10/3 177/10/3
f 180/10/3 178/10/3 179/10/3
f 183/10/3 182/10/3 181/10/3
f 184/10/3 182/10/3 183/10/3
f 187/10/3 186/10/3 185/10/3
f 188/10/3 186/10/3 187/10/3
f 191/10/3 190/10/3 189/10/3
f 192/10/3 190/10/3 191/10/3
f 193/10/4 194/10/4 195/10/4
f 195/10/4 194/10/4 196/10/4
f 197/10/4 198/10/4 199/10/4
f 199/10/4 198/10/4 200/10/4
f 201/10/4 202/10/4 203/10/4
f 203/10/4 202/10/4 204/10/4
f 205/10/4 206/10/4 207/10/4
f 207/10/4 206/10/4 208/10/4
f 209/10/4 210/10/4 211/10/4
f 211/10/4 210/10/4 212/10/4
f 213/10/4 214/10/4 215/10/4
f 215/10/4 214/10/4 216/10/4
f 217/10/4 218/10/4 221/10/4
f 221/10/4 218/10/4 222/10/4
f 219/10/4 220/10/4 224/10/4
f 224/10/4 220/10/4 225/10/4
f 226/10/4 227/10/4 228/10/4
f 228/10/4 227/10/4 229/10/4
f 222/10/4 223/10/4 231/10/4
f 231/10/4 223/10/4 232/10/4
f 230/10/4 231/10/4 235/10/4
f 235/10/4 231/10/4 236/10/4
f 233/10/4 234/10/4 237/10/4
f 237/10/4 234/10/4 238/10/4
f 239/10/4 240/10/4 243/10/4
f 243/10/4 240/10/4 244/10/4
f 241/10/4 242/10/4 245/10/4
f 244/10/4 240/10/4 247/10/4
f 245/10/4 246/10/4 248/10/4
f 241/10/4 245/10/4 248/10/4
f 248/10/4 246/10/4 249/10/4
f 244/10/4 247/10/4 250/10/4
f 243/11/4 244/11/4 250/11/4
f 247/10/4 248/10/4 250/10/4
f 248/11/4 249/11/4 251/11/4
f 250/10/4 248/10/4 251/10/4
f 243/11/4 250/11/4 252/11/4
f 250/11/4 251/11/4 252/11/4
f 251/11/4 249/11/4 253/11/4
f 252/11/4 251/11/4 253/11/4
f 252/10/4 253/10/4 254/10/4
f 253/11/4 249/11/4 255/11/4
f 254/10/4 253/10/4 255/10/4
f 249/10/4 246/10/4 256/10/4
f 255/11/4 249/11/4 256/11/4
f 243/11/4 252/11/4 257/11/4
f 252/10/4 254/10/4 258/10/4
f 257/11/4 252/11/4 258/11/4
f 255/10/4 256/10/4 259/10/4
f 256/10/4 246/10/4 260/10/4
f 259/10/4 256/10/4 260/10/4
f 257/10/4 258/10/4 261/10/4
f 258/10/4 254/10/4 262/10/4
f 261/10/4 258/10/4 262/10/4
f 255/10/4 259/10/4 263/10/4
f 263/10/4 259/10/4 264/10/4
f 269/10/5 266/10/5 265/10/5
f 270/10/5 266/10/5 269/10/5
f 271/10/5 268/10/5 267/10/5
f 272/10/5 268/10/5 271/10/5
f 278/10/5 274/10/5 273/10/5
f 279/11/5 275/11/5 274/11/5
f 279/10/5 274/10/5 278/10/5
f 280/10/5 276/10/5 275/10/5
f 280/11/5 275/11/5 279/11/5
f 281/10/5 276/10/5 280/10/5
f 283/10/5 279/10/5 278/10/5
f 283/10/5 282/10/5 281/10/5
f 283/10/5 281/10/5 280/10/5
f 283/10/5 280/10/5 279/10/5
f 283/10/5 278/10/5 277/10/5
f 284/10/5 282/10/5 283/10/5
f 285/10/5 282/10/5 284/10/5
f 286/10/5 282/10/5 285/10/5
f 287/10/5 285/10/5 284/10/5
f 288/10/5 285/10/5 287/10/5
f 289/10/5 285/10/5 288/10/5
f 290/10/5 285/10/5 289/10/5
f 291/10/5 287/10/5 284/10/5
f 292/10/5 289/10/5 288/10/5
f 293/10/5 289/10/5 292/10/5
f 294/10/5 285/10/5 290/10/5
f 295/11/5 284/11/5 283/11/5
f 296/10/5 294/10/5 293/10/5
f 296/11/5 284/11/5 295/11/5
f 296/10/5 293/10/5 292/10/5
f 296/10/5 291/10/5 284/10/5
f 296/10/5 292/10/5 291/10/5
f 297/11/5 286/11/5 285/11/5
f 297/10/5 294/10/5 296/10/5
f 297/10/5 285/10/5 294/10/5
f 298/11/5 286/11/5 297/11/5
f 299/10/5 296/10/5 295/10/5
f 299/10/5 297/10/5 296/10/5
f 299/10/5 298/10/5 297/10/5
f 300/10/5 298/10/5 299/10/5
f 301/10/5 298/10/5 300/10/5
f 302/10/5 298/10/5 301/10/5
f 303/10/5 298/10/5 302/10/5
f 304/10/5 298/10/5 303/10/5
f 305/10/5 301/10/5 300/10/5
f 306/11/5 302/11/5 301/11/5
f 306/10/5 301/10/5 305/10/5
f 307/10/5 303/10/5 302/10/5
f 307/11/5 302/11/5 306/11/5
f 308/10/5 303/10/5 307/10/5
f 314/10/5 310/10/5 309/10/5
f 315/10/5 312/10/5 311/10/5
f 317/10/5 314/10/5 313/10/5
f 318/10/5 310/10/5 314/10/5
f 318/10/5 314/10/5 317/10/5
f 319/10/5 316/10/5 315/10/5
f 319/10/5 315/10/5 311/10/5
f 320/10/5 316/10/5 319/10/5
f 321/10/5 310/10/5 318/10/5
f 324/10/5 319/10/5 311/10/5
f 325/10/5 322/10/5 321/10/5
f 325/10/5 321/10/5 318/10/5
f 326/10/5 322/10/5 325/10/5
f 327/10/5 324/10/5 323/10/5
f 328/10/5 319/10/5 324/10/5
f 328/10/5 324/10/5 327/10/5
f 329/10/6 330/10/6 333/10/6
f 333/10/6 330/10/6 334/10/6
f 331/10/6 332/10/6 335/10/6
f 335/10/6 332/10/6 336/10/6
f 337/10/6 338/10/6 341/10/6
f 339/10/6 340/10/6 344/10/6
f 341/10/6 342/10/6 345/10/6
f 337/10/6 341/10/6 345/10/6
f 345/10/6 342/10/6 346/10/6
f 343/10/6 344/10/6 347/10/6
f 344/10/6 340/10/6 348/10/6
f 347/10/6 344/10/6 348/10/6
f 349/10/6 350/10/6 353/10/6
f 353/10/6 350/10/6 354/10/6
f 351/10/6 352/10/6 355/10/6
f 355/10/6 352/10/6 356/10/6
f 357/10/6 358/10/6 361/10/6
f 361/10/6 358/10/6 362/10/6
f 359/10/6 360/10/6 363/10/6
f 363/10/6 360/10/6 364/10/6
f 365/10/6 366/10/6 369/10/6
f 369/10/6 366/10/6 370/10/6
f 367/10/6 368/10/6 371/10/6
f 371/10/6 368/10/6 372/10/6
f 373/10/6 374/10/6 376/10/6
f 376/10/6 374/10/6 377/10/6
f 375/10/6 376/10/6 379/10/6
f 379/10/6 376/10/6 380/10/6
f 377/10/6 378/10/6 381/10/6
f 381/10/6 378/10/6 382/10/6
f 380/10/6 381/10/6 383/10/6
f 383/10/6 381/10/6 384/10/6
f 385/10/6 386/10/6 387/10/6
f 387/10/6 386/10/6 388/10/6
f 385/10/6 387/10/6 389/10/6
f 388/10/6 386/10/6 390/10/6
f 385/10/6 389/10/6 391/10/6
f 389/10/6 390/10/6 391/10/6
f 390/10/6 386/10/6 392/10/6
f 391/10/6 390/10/6 392/10/6
f 393/10/6 394/10/6 395/10/6
f 395/10/6 394/10/6 396/10/6
