# MagicaVoxel @ Ephtracy

# group
g Sword

# material
mtllib Sword.mtl
usemtl palette

# normals
vn -1 0 0
vn 1 0 0
vn 0 0 1
vn 0 0 -1
vn 0 -1 0
vn 0 1 0

# texcoords
vt 0.00195313 0.5
vt 0.0136719 0.5
vt 0.970703 0.5

# verts
v -1 0 2.5
v -1 0 1.5
v -1 1 2.5
v -1 1 1.5
v 0 0 4.5
v 0 0 2.5
v 0 0 1.5
v 0 0 -4.5
v 0 1 4.5
v 0 1 2.5
v 0 1 1.5
v 0 1 -4.5
v 1 0 4.5
v 1 0 2.5
v 1 0 1.5
v 1 0 -4.5
v 1 1 4.5
v 1 1 2.5
v 1 1 1.5
v 1 1 -4.5
v 2 0 2.5
v 2 0 1.5
v 2 1 2.5
v 2 1 1.5
v 0 0 4.5
v 0 1 4.5
v 1 0 4.5
v 1 1 4.5
v -1 0 2.5
v -1 1 2.5
v 0 0 2.5
v 0 1 2.5
v 1 0 2.5
v 1 1 2.5
v 2 0 2.5
v 2 1 2.5
v -1 0 1.5
v -1 1 1.5
v 0 0 1.5
v 0 1 1.5
v 1 0 1.5
v 1 1 1.5
v 2 0 1.5
v 2 1 1.5
v 0 0 -4.5
v 0 1 -4.5
v 1 0 -4.5
v 1 1 -4.5
v 0 0 4.5
v 1 0 4.5
v -1 0 2.5
v 0 0 2.5
v 1 0 2.5
v 2 0 2.5
v -1 0 1.5
v 0 0 1.5
v 1 0 1.5
v 2 0 1.5
v 0 0 -4.5
v 1 0 -4.5
v 0 1 4.5
v 1 1 4.5
v -1 1 2.5
v 0 1 2.5
v 1 1 2.5
v 2 1 2.5
v -1 1 1.5
v 0 1 1.5
v 1 1 1.5
v 2 1 1.5
v 0 1 -4.5
v 1 1 -4.5

# faces
f 3/3/1 2/3/1 1/3/1
f 4/3/1 2/3/1 3/3/1
f 9/3/1 6/3/1 5/3/1
f 10/3/1 6/3/1 9/3/1
f 11/1/1 8/1/1 7/1/1
f 12/1/1 8/1/1 11/1/1
f 13/3/2 14/3/2 17/3/2
f 17/3/2 14/3/2 18/3/2
f 15/1/2 16/1/2 19/1/2
f 19/1/2 16/1/2 20/1/2
f 21/3/2 22/3/2 23/3/2
f 23/3/2 22/3/2 24/3/2
f 27/3/3 26/3/3 25/3/3
f 28/3/3 26/3/3 27/3/3
f 31/3/3 30/3/3 29/3/3
f 32/3/3 30/3/3 31/3/3
f 35/3/3 34/3/3 33/3/3
f 36/3/3 34/3/3 35/3/3
f 37/3/4 38/3/4 39/3/4
f 39/3/4 38/3/4 40/3/4
f 41/3/4 42/3/4 43/3/4
f 43/3/4 42/3/4 44/3/4
f 45/1/4 46/1/4 47/1/4
f 47/1/4 46/1/4 48/1/4
f 52/3/5 50/3/5 49/3/5
f 53/3/5 50/3/5 52/3/5
f 55/3/5 52/3/5 51/3/5
f 56/2/5 53/2/5 52/2/5
f 56/3/5 52/3/5 55/3/5
f 57/3/5 54/3/5 53/3/5
f 57/2/5 53/2/5 56/2/5
f 58/3/5 54/3/5 57/3/5
f 59/1/5 57/1/5 56/1/5
f 60/1/5 57/1/5 59/1/5
f 61/3/6 62/3/6 64/3/6
f 64/3/6 62/3/6 65/3/6
f 63/3/6 64/3/6 67/3/6
f 64/2/6 65/2/6 68/2/6
f 67/3/6 64/3/6 68/3/6
f 65/3/6 66/3/6 69/3/6
f 68/2/6 65/2/6 69/2/6
f 69/3/6 66/3/6 70/3/6
f 68/1/6 69/1/6 71/1/6
f 71/1/6 69/1/6 72/1/6
